<svg version="1.1" viewBox="0.0 0.0 211.2755905511811 208.81627296587928" fill="none" stroke="none" stroke-linecap="square" stroke-miterlimit="10" xmlns:xlink="http://www.w3.org/1999/xlink" xmlns="http://www.w3.org/2000/svg"><clipPath id="p.0"><path d="m0 0l211.27559 0l0 208.81627l-211.27559 0l0 -208.81627z" clip-rule="nonzero"/></clipPath><g clip-path="url(#p.0)"><path fill="#000000" fill-opacity="0.0" d="m0 0l211.27559 0l0 208.81627l-211.27559 0z" fill-rule="evenodd"/><path fill="#cb4748" d="m0 34.7671l0 0c0 -19.20134 15.565761 -34.7671 34.7671 -34.7671l141.42642 0l0 0c9.22081 0 18.063965 3.6629517 24.58406 10.183047c6.520096 6.520097 10.183044 15.363244 10.183044 24.584053l0 139.06422c0 19.20134 -15.565765 34.76709 -34.767105 34.76709l-141.42642 0c-19.20134 0 -34.7671 -15.56575 -34.7671 -34.76709z" fill-rule="evenodd"/><path fill="#f3f3f3" d="m136.4725 72.274216l1.09375 -1.453125l5.828125 4.734375l-1.09375 1.09375q-9.484375 16.40625 -18.59375 21.875l3.640625 1.09375q2.5625 1.09375 -0.359375 2.1875q-0.734375 2.546875 -1.828125 4.375l15.6875 0l1.09375 -1.453125l6.5625 4.734375l-1.46875 1.453125q-11.65625 31.0 -47.390625 35.0l-2.90625 -6.921875q17.125 -1.828125 26.96875 -9.109375q-5.109375 -5.109375 -10.203125 -8.75q-4.75 4.0 -12.765625 7.28125l-3.28125 -6.5625q17.859375 -7.28125 23.328125 -22.234375q-5.46875 5.109375 -19.671875 8.75l-3.28125 -6.5625q13.84375 -2.921875 20.765625 -7.65625q-3.640625 -4.375 -8.75 -7.65625q-2.546875 2.5625 -5.09375 4.375l-5.109375 -5.46875q12.03125 -10.203125 15.3125 -21.875l6.5625 2.1875q2.546875 1.09375 -0.359375 2.1875q-0.375 2.1875 -1.828125 4.375l17.140625 0zm-49.578125 14.21875l12.03125 0l0 6.921875l-12.03125 0l0 9.125q7.28125 3.28125 13.84375 9.84375l-4.734375 6.5625q-5.828125 -5.84375 -9.109375 -8.390625l0 35.359375l-7.296875 0l0 -36.09375q-2.1875 7.296875 -12.03125 18.59375l-5.46875 -6.921875q13.484375 -12.765625 16.765625 -28.078125l-14.21875 0l0 -6.921875l14.953125 0l0 -12.03125q-7.296875 1.09375 -13.125 1.828125l-1.828125 -6.921875q14.59375 -1.46875 30.265625 -5.84375l4.015625 5.46875q1.453125 2.1875 -1.828125 1.46875q-5.109375 1.453125 -10.203125 2.546875l0 13.484375zm26.609375 -4.375q5.46875 2.921875 10.5625 7.296875q5.46875 -5.109375 9.125 -11.296875l-16.78125 0q-1.453125 2.546875 -2.90625 4.0zm4.0 34.640625q5.109375 2.90625 11.671875 8.75q5.46875 -4.015625 9.484375 -13.5l-16.78125 0q-2.1875 2.921875 -4.375 4.75z" fill-rule="nonzero"/></g></svg>