<svg version="1.1" viewBox="0.0 0.0 977.6430446194225 210.8766404199475" fill="none" stroke="none" stroke-linecap="square" stroke-miterlimit="10" xmlns:xlink="http://www.w3.org/1999/xlink" xmlns="http://www.w3.org/2000/svg"><clipPath id="p.0"><path d="m0 0l977.64307 0l0 210.87665l-977.64307 0l0 -210.87665z" clip-rule="nonzero"/></clipPath><g clip-path="url(#p.0)"><path fill="#000000" fill-opacity="0.0" d="m0 0l977.64307 0l0 210.87665l-977.64307 0z" fill-rule="evenodd"/><path fill="#000000" fill-opacity="0.0" d="m29.0 8.535433l988.0 0l0 214.92914l-988.0 0z" fill-rule="evenodd"/><path fill="#cb4748" d="m39.12336 51.57009l0 0c0 -14.875744 12.059174 -26.934921 26.934921 -26.934921l107.73646 0l0 0c7.143585 0 13.994583 2.837778 19.045868 7.889057c5.0512695 5.051277 7.8890533 11.902279 7.8890533 19.045864l0 107.73646c0 14.875748 -12.059174 26.934921 -26.934921 26.934921l-107.73646 0c-14.875748 0 -26.934921 -12.059174 -26.934921 -26.934921z" fill-rule="evenodd"/><path fill="#f3f3f3" d="m146.48901 77.98831l0.9375 -1.25l5.0 4.0625l-0.9375 0.9375q-8.125 14.0625 -15.9375 18.75l3.125 0.9375q2.1875 0.9375 -0.3125 1.875q-0.625 2.1875 -1.5625 3.75l13.4375 0l0.9375 -1.25l5.625 4.0625l-1.25 1.25q-10.0 26.5625 -40.625 30.0l-2.5 -5.9375q14.6875 -1.5625 23.125 -7.8125q-4.375 -4.375 -8.75 -7.5q-4.0625 3.4375 -10.9375 6.25l-2.8125 -5.625q15.3125 -6.25 20.0 -19.0625q-4.6875 4.375 -16.875 7.5l-2.8125 -5.625q11.875 -2.5 17.8125 -6.5625q-3.125 -3.75 -7.5 -6.5625q-2.1875 2.1875 -4.375 3.75l-4.375 -4.6875q10.3125 -8.75 13.125 -18.75l5.625 1.875q2.1875 0.9375 -0.3125 1.875q-0.3125 1.875 -1.5625 3.75l14.6875 0zm-42.500008 12.1875l10.312508 0l0 5.9375l-10.312508 0l0 7.8125q6.25 2.8125 11.875008 8.4375l-4.0625 5.625q-5.0000076 -5.0 -7.8125076 -7.1875l0 30.3125l-6.25 0l0 -30.9375q-1.875 6.25 -10.3125 15.9375l-4.6875 -5.9375q11.5625 -10.9375 14.375 -24.0625l-12.1875 0l0 -5.9375l12.8125 0l0 -10.3125q-6.25 0.9375 -11.25 1.5625l-1.5625 -5.9375q12.5 -1.25 25.9375 -5.0l3.4375076 4.6875q1.25 1.875 -1.5625 1.25q-4.3750076 1.25 -8.750008 2.1875l0 11.5625zm22.812508 -3.75q4.6875 2.5 9.0625 6.25q4.6875 -4.375 7.8125 -9.6875l-14.375 0q-1.25 2.1875 -2.5 3.4375zm3.4375 29.6875q4.375 2.5 10.0 7.5q4.6875 -3.4375 8.125 -11.5625l-14.375 0q-1.875 2.5 -3.75 4.0625z" fill-rule="nonzero"/><path fill="#000000" fill-opacity="0.0" d="m214.33595 24.63517l726.1417 0l0 161.6063l-726.1417 0z" fill-rule="evenodd"/><path fill="#f3f3f3" d="m308.58597 121.072044q6.40625 -12.375 7.78125 -37.578125l-15.578125 0q1.375 25.203125 7.796875 37.578125zm16.953125 -37.578125q-0.921875 28.40625 -11.0 45.828133q7.328125 9.15625 20.625 16.03125l-5.953125 10.09375q-14.671875 -9.625 -20.625 -18.34375q-10.546875 11.921875 -32.546875 20.625l-4.578125 -9.15625q23.828125 -9.625 31.625 -19.71875q-7.796875 -15.125008 -8.71875 -30.250008q-2.75 6.875 -5.5 10.546875l-7.78125 -5.953125q13.75 -20.171875 16.5 -49.953125l9.625 2.28125q2.75 1.84375 -1.375 2.75q-1.375 8.25 -3.671875 16.5l31.171875 0l0 8.71875l-7.796875 0zm-42.625 -22.0q-2.75 6.875 -6.40625 11.453125l-7.34375 -4.125q3.671875 -5.953125 6.875 -13.75l8.25 4.125q1.828125 1.828125 -1.375 2.296875zm-29.32814 64.609375q6.4218903 1.84375 11.45314 4.1250076q3.671875 -4.1250076 5.96875 -12.375008l-13.296875 0q-1.8281403 4.125 -4.1250153 8.25zm-6.421875 11.468758l-7.328125 -4.125q4.578125 -6.8750076 9.171875 -15.593758l-17.421875 0l0 -7.328125l20.171875 0q2.75 -5.953125 4.125 -10.078125l8.70314 2.28125q1.828125 1.84375 -1.375 2.296875l-2.75 5.5l26.125 0l0 7.328125l-6.875 0q-2.296875 9.171875 -6.875 15.593758q4.125 1.828125 8.703125 4.578125l-4.125 7.328125q-5.03125 -3.203125 -9.15625 -5.03125q-11.921875 11.90625 -32.093765 14.65625l-3.203125 -8.25q17.875 -1.828125 27.500015 -10.078125q-5.0468903 -2.296875 -10.07814 -4.125l-3.21875 5.046875zm9.17189 -86.17188l7.328125 0q3.671875 0.46875 0.46875 2.75l0 19.71875l23.359375 0l0 7.328125l-19.234375 0q5.03125 5.953125 15.578125 11.453125l-5.046875 7.796875q-7.78125 -4.59375 -14.65625 -12.84375l0 11.0l-7.796875 0l0 -8.703125q-7.3281403 9.171875 -20.17189 16.5l-5.953125 -7.328125q14.203125 -7.34375 23.375 -17.875l-21.078125 0l0 -7.328125l23.82814 0l0 -22.46875zm-12.82814 21.09375q-3.21875 -6.875 -8.25 -11.921875l7.328125 -4.578125q5.5 5.5 8.25 11.453125l-7.328125 5.046875zm161.31252 32.53125l0 5.953125l44.921875 0l0 8.71875l-44.921875 0l0 26.578133q0 7.328125 -7.328125 7.328125l-12.375 0l-2.28125 -8.703125l11.0 0q1.828125 0 1.828125 -1.828125l0 -23.375008l-47.671875 0l0 -8.71875l47.671875 0l0 -11.90625l4.578125 0.90625l12.828125 -8.703125l-43.984375 0l0 -8.703125l53.15625 0l1.828125 -1.828125l7.796875 7.78125l-2.75 0.921875l-24.296875 15.578125zm-0.453125 -40.78125l42.625 0l0 22.90625l-9.171875 0l0 -14.203125l-77.453125 0l0 15.125l-9.15625 0l0 -23.828125l42.625 0l0 -12.375l10.078125 0q4.578125 0.90625 0.453125 3.65625l0 8.71875zm151.24997 -0.46875l1.375 -1.828125l7.328125 5.953125l-1.375 1.375q-11.921875 20.625 -23.375 27.5l4.578125 1.375q3.21875 1.375 -0.453125 2.75q-0.921875 3.203125 -2.296875 5.5l19.71875 0l1.375 -1.828125l8.25 5.953125l-1.84375 1.828125q-14.65625 38.968758 -59.578094 44.000008l-3.65625 -8.703125q21.53122 -2.296875 33.90622 -11.453125q-6.421875 -6.421875 -12.828125 -11.000008q-5.96875 5.0312576 -16.046844 9.156258l-4.125 -8.250008q22.453094 -9.15625 29.328094 -27.953125q-6.875 6.421875 -24.734344 11.0l-4.125 -8.25q17.40622 -3.671875 26.109344 -9.625q-4.578125 -5.5 -11.0 -9.625q-3.203125 3.21875 -6.40625 5.5l-6.4218445 -6.875q15.1249695 -12.828125 19.24997 -27.5l8.25 2.75q3.203125 1.375 -0.453125 2.75q-0.46875 2.75 -2.296875 5.5l21.546875 0zm-62.328094 17.875l15.125 0l0 8.703125l-15.125 0l0 11.46875q9.15625 4.125 17.40625 12.375l-5.953125 8.25q-7.328125 -7.34375 -11.453125 -10.546875l0 44.453133l-9.171875 0l0 -45.375008q-2.75 9.171875 -15.125 23.375008l-6.875 -8.703133q16.953125 -16.046875 21.078125 -35.296875l-17.875 0l0 -8.703125l18.796875 0l0 -15.125q-9.171875 1.375 -16.5 2.296875l-2.296875 -8.703125q18.34375 -1.84375 38.046875 -7.34375l5.046875 6.875q1.828125 2.75 -2.296875 1.84375q-6.421875 1.828125 -12.828125 3.203125l0 16.953125zm33.453094 -5.5q6.875 3.671875 13.28125 9.171875q6.875 -6.421875 11.46875 -14.203125l-21.09375 0q-1.828125 3.203125 -3.65625 5.03125zm5.03125 43.546875q6.421875 3.65625 14.671875 11.000008q6.875 -5.0468826 11.921875 -16.968758l-21.09375 0q-2.75 3.671875 -5.5 5.96875zm131.07812 30.703133q-20.625 -12.375 -27.5 -40.328133l-29.78125 0l0 28.875008l33.0 -8.25l1.375 8.703125l-48.578125 13.75q-0.46875 3.671875 -2.296875 1.828125l-3.203125 -12.375l10.53125 -1.828125l0 -84.32813l75.625 0l0 33.90625l-9.171875 0l0 -2.75l-21.53125 0q0.90625 6.421875 1.828125 13.75l41.25 0l0 8.71875l-39.421875 0q6.875 22.906258 23.375 31.625008q5.96875 3.203125 6.875 -3.21875l0.921875 -5.953125l10.078125 3.671875l-1.828125 8.703125q-3.671875 16.5 -21.546875 5.5zm-57.28125 -49.046883l27.953125 0q-0.90625 -6.875 -1.828125 -13.75l-26.125 0l0 13.75zm57.28125 -22.453125l0 -13.75l-57.28125 0l0 13.75l57.28125 0z" fill-rule="nonzero"/><path fill="#f3f3f3" d="m786.60156 52.77517q-0.453125 4.59375 -0.453125 13.75q0 8.71875 0.453125 14.671875l-64.625 0l0 6.40625q0 6.421875 8.25 6.421875l49.046875 0q6.875 0 8.9375 -1.828125q2.0625 -1.84375 2.515625 -10.078125q4.578125 3.65625 10.546875 5.484375q-4.125 10.546875 -6.421875 12.390625q-2.296875 1.828125 -9.171875 1.828125l-62.328125 0q-10.53125 0 -10.53125 -11.0l0 -26.125q0 -5.953125 -0.921875 -11.921875l74.703125 0zm-16.953125 61.875q0 -4.125 -0.46875 -10.546875l10.09375 0q-0.46875 7.34375 -0.46875 10.546875l9.171875 0q6.875 0 16.5 -0.453125l0 8.25q-9.625 -0.46875 -16.5 -0.46875l-9.171875 0l0 20.171883q0 8.25 -4.578125 11.0q-4.578125 2.75 -16.5 5.046875q-1.375 -5.96875 -4.125 -11.0q11.921875 0 13.984375 -1.375q2.0625 -1.375 2.0625 -5.046875l0 -18.796883l-50.875 0q-9.625 0 -19.703125 0.46875l0 -8.25q9.15625 0.453125 19.25 0.453125l51.328125 0zm7.78125 -41.25l0 -13.28125l-55.453125 0l0 13.28125l55.453125 0zm-54.984375 51.796875q6.875 7.7812576 13.75 18.781258q-5.046875 3.21875 -8.25 5.5q-5.046875 -9.15625 -12.375 -18.328125q3.65625 -2.296875 6.875 -5.9531326z" fill-rule="nonzero"/><path fill="#f3f3f3" d="m850.77344 108.228294l-18.34375 0.921875l0 16.953125q0 16.500008 -10.078125 29.796883l-6.875 -5.5q9.171875 -11.0 9.171875 -24.750008l0 -16.046875l-6.421875 0.46875q-0.453125 4.125 -2.296875 0.90625l-1.828125 -9.625l10.546875 0l0 -37.578125l10.078125 0l2.75 -12.375l9.171875 0.921875q3.203125 1.828125 -0.921875 2.296875l-2.75 9.15625l15.578125 0l0 36.203125l9.171875 -0.453125l0 7.328125l-9.171875 0.46875l0 42.625008q0 6.40625 -5.953125 6.40625l-8.703125 0l-1.375 -8.703125l6.40625 0q1.84375 0 1.84375 -1.828125l0 -37.593758zm46.734375 -11.0l-15.125 0l0 27.046875q0 18.796883 -14.65625 31.171883l-6.875 -7.796875q12.375 -9.171875 12.375 -25.203133l0 -33.921875l33.453125 0l0 53.625008q0 3.671875 3.671875 3.671875q2.75 0 2.75 -2.75l0.90625 -9.625l9.171875 1.375l-1.375 11.90625q-0.921875 7.796875 -7.796875 7.796875l-8.25 0q-8.25 0 -8.25 -8.25l0 -49.046883zm-60.03125 45.843758l0 -30.250008l7.796875 0q2.75 0.453125 0 2.28125l0 27.968758l-7.796875 0zm2.296875 -46.296883q-1.84375 -9.171875 -4.59375 -18.328125l7.796875 -2.296875q4.125 10.546875 5.5 17.875l-8.703125 2.75zm11.0 -25.65625l-18.34375 0l0 29.78125l18.34375 -0.453125l0 -29.328125zm14.203125 6.875l0 -8.71875l20.625 0l0 -18.328125l8.703125 0q3.671875 0.453125 0.453125 2.75l0 15.578125l23.375 0l0 8.71875l-53.15625 0z" fill-rule="nonzero"/></g></svg>