<?xml version="1.0" standalone="no"?><!DOCTYPE svg PUBLIC "-//W3C//DTD SVG 1.1//EN" "http://www.w3.org/Graphics/SVG/1.1/DTD/svg11.dtd"><svg class="icon" width="200px" height="200.00px" viewBox="0 0 1024 1024" version="1.1" xmlns="http://www.w3.org/2000/svg"><path d="M208.979592 1024h606.040816c115.461224 0 208.979592-93.518367 208.979592-208.979592V208.979592C1024 93.518367 930.481633 0 815.020408 0H208.979592C93.518367 0 0 93.518367 0 208.979592v606.040816c0 115.461224 93.518367 208.979592 208.979592 208.979592z" fill="#171F20" /><path d="M341.159184 390.687347a64.574694 64.574694 0 0 1-53.080817 25.6c-1.358367-20.062041 5.433469-39.810612 18.703674-54.752653a78.889796 78.889796 0 0 1 51.826939-27.167347c1.358367 20.27102-4.806531 40.437551-17.449796 56.32z m17.031836 29.048163h1.358368c25.80898 0.835918 49.528163 13.897143 64.261224 35.213061A80.875102 80.875102 0 0 0 385.776327 522.44898c-0.20898 31.346939 17.972245 59.872653 46.497959 72.724898-5.537959 17.867755-13.688163 34.795102-24.032653 50.259591-14.628571 21.315918-30.406531 43.363265-53.812245 43.781225-23.510204 0.417959-31.137959-14.001633-57.887347-14.001633-26.853878 0-34.063673 14.419592-57.469388 14.419592s-41.06449-22.465306-55.693061-45.035102c-30.406531-43.363265-53.498776-124.447347-22.256327-178.677551a84.845714 84.845714 0 0 1 72.515919-45.035102c22.987755-0.417959 44.617143 15.46449 57.887347 15.46449 13.165714 0 37.825306-18.494694 66.664489-16.613878z m227.578776-28.839183v56.11102h44.512653v38.765714h-44.512653V617.534694c0 20.37551 8.881633 29.988571 28.630204 29.988571 5.433469 0 10.657959-0.417959 16.091429-1.253877v38.556734c-8.881633 1.567347-17.867755 2.298776-26.853878 2.194286-47.856327 0-66.66449-18.285714-66.66449-64.470204V486.4h-33.645714v-39.392653h34.272653v-56.11102z m207.203265 295.497142h-51.617959l-85.263673-239.386122h51.617959l59.245714 190.902857 60.081633-190.902857H877.714286z" fill="#F9F9F9" /></svg>